<svg width="27" height="28" fill="none" xmlns="http://www.w3.org/2000/svg"><path fill-rule="evenodd" clip-rule="evenodd" d="M13.555 28s14.69-5.096 13.36-24.262c-.076-1.086-1.01-1.89-2.089-2.069-1.051-.174-2.118-.385-3.191-.597C18.947.54 16.215 0 13.555 0 10.1 0 6.77.687 3.823 1.294c-.566.117-1.118.231-1.655.336C1.094 1.842.16 2.653.084 3.74-1.245 23.019 13.554 28 13.554 28zM10.954 4.47c0 .503.408.911.91.911h.608v2.202c-.83.14-1.598.466-2.256.935L8.53 6.833l.43-.43a.911.911 0 10-1.29-1.288L5.525 7.262a.911.911 0 001.289 1.289l.43-.43 1.684 1.685a5.437 5.437 0 00-.935 2.257H5.486v-.608a.911.911 0 10-1.822 0v3.037a.911.911 0 101.822 0v-.607h2.506c.138.825.462 1.588.926 2.244l-1.553 1.553-.43-.43a.911.911 0 00-1.288 1.29l2.148 2.147A.911.911 0 009.083 19.4l-.43-.43 1.55-1.549a5.438 5.438 0 002.27.944v1.813h-.608a.911.911 0 100 1.822h3.037a.911.911 0 100-1.822h-.608v-1.813c.941-.158 1.8-.556 2.513-1.13l1.397 1.397-.43.43a.911.911 0 001.289 1.288l2.148-2.147a.911.911 0 00-1.289-1.289l-.43.43-1.472-1.473c.405-.648.68-1.388.783-2.18h2.235v.607a.911.911 0 101.822 0v-3.037a.911.911 0 10-1.822 0v.607h-2.3a5.441 5.441 0 00-.947-2.128l1.62-1.619.429.43a.911.911 0 001.288-1.289l-2.147-2.147a.911.911 0 00-1.289 1.288l.43.43-1.639 1.638a5.436 5.436 0 00-2.189-.888V5.381h.608a.911.911 0 100-1.822h-3.037a.911.911 0 00-.911.911zm-.583 8.144c-.403 0-.737-.341-.657-.75.065-.334.174-.658.325-.963.261-.53.64-.99 1.107-1.34a3.587 3.587 0 011.574-.674c.327-.053.66-.06.987-.022.4.048.61.482.486.878s-.541.6-.944.607a2.152 2.152 0 00-1.245.432 2.246 2.246 0 00-.782 1.091c-.132.394-.448.74-.851.74z" fill="#31C687"/></svg>