<?xml version="1.0" standalone="no"?>
<!DOCTYPE svg PUBLIC "-//W3C//DTD SVG 20010904//EN"
 "http://www.w3.org/TR/2001/REC-SVG-20010904/DTD/svg10.dtd">
<svg version="1.0" xmlns="http://www.w3.org/2000/svg"
 width="896.000000pt" height="896.000000pt" viewBox="0 0 896.000000 896.000000"
 preserveAspectRatio="xMidYMid meet">
<metadata>
Created by potrace 1.11, written by Peter Selinger 2001-2013
</metadata>
<g transform="translate(0.000000,896.000000) scale(0.100000,-0.100000)"
fill="#000000" stroke="none">
<path d="M4148 8955 c-2 -2 -59 -6 -128 -9 -69 -3 -152 -8 -185 -11 -167 -13
-192 -15 -220 -19 -26 -3 -98 -10 -220 -22 -81 -7 -216 -24 -240 -29 -11 -2
-45 -7 -75 -11 -52 -6 -82 -10 -140 -18 -14 -2 -25 -5 -25 -6 0 -1 -11 -3 -25
-4 -44 -4 -135 -18 -143 -23 -5 -3 -29 -7 -55 -9 -26 -2 -58 -6 -72 -9 -32 -7
-76 -14 -117 -19 -18 -3 -40 -7 -50 -10 -10 -3 -34 -7 -53 -10 -19 -3 -46 -8
-60 -11 -14 -3 -41 -8 -60 -11 -30 -4 -61 -10 -105 -20 -5 -1 -27 -5 -49 -9
-21 -4 -46 -8 -55 -10 -9 -2 -65 -13 -126 -25 -60 -12 -119 -23 -130 -26 -11
-2 -36 -7 -55 -10 -19 -3 -37 -7 -40 -9 -3 -2 -24 -6 -46 -9 -39 -6 -67 -12
-102 -20 -25 -7 -312 -66 -347 -72 -16 -3 -46 -9 -66 -14 -20 -6 -49 -12 -65
-14 -16 -2 -40 -7 -54 -10 -14 -4 -36 -8 -50 -10 -14 -2 -36 -6 -50 -10 -14
-3 -36 -8 -50 -10 -71 -14 -91 -19 -160 -43 -78 -27 -145 -60 -221 -109 -51
-33 -189 -166 -189 -183 0 -6 -4 -11 -8 -11 -12 0 -79 -130 -97 -190 -27 -90
-27 -87 -42 -365 -10 -178 -10 -899 0 -1070 13 -231 30 -450 42 -535 10 -69
17 -126 20 -165 2 -22 6 -51 9 -65 3 -14 8 -50 11 -80 4 -30 8 -64 10 -75 2
-11 6 -42 10 -70 4 -27 9 -53 11 -56 1 -3 6 -28 9 -55 4 -27 9 -58 12 -69 3
-11 8 -33 10 -50 5 -38 11 -70 13 -70 1 0 3 -11 6 -25 2 -14 15 -77 29 -140
14 -64 27 -126 30 -138 2 -12 6 -26 9 -31 3 -5 8 -26 12 -47 3 -20 10 -49 16
-63 5 -14 9 -27 9 -28 -1 -2 -1 -4 0 -5 0 -2 2 -10 4 -18 4 -20 31 -116 43
-157 6 -18 8 -33 5 -33 -3 0 0 -7 7 -15 7 -8 9 -15 6 -15 -4 0 -1 -10 5 -22 7
-12 13 -29 13 -38 2 -15 21 -78 35 -115 13 -31 52 -148 56 -165 10 -47 207
-542 224 -565 4 -5 14 -26 21 -45 17 -44 176 -366 217 -440 17 -30 41 -73 53
-95 12 -22 31 -56 42 -75 12 -19 26 -44 32 -55 31 -54 81 -136 117 -190 21
-33 42 -67 46 -75 4 -8 15 -24 25 -34 10 -11 18 -26 18 -33 0 -7 4 -13 8 -13
5 0 15 -12 23 -27 8 -16 16 -30 20 -33 3 -3 25 -34 50 -70 24 -36 46 -67 49
-70 3 -3 38 -49 78 -103 84 -112 74 -100 183 -232 229 -277 538 -597 769 -795
68 -58 124 -106 142 -120 10 -8 33 -28 51 -43 18 -16 51 -43 75 -60 23 -17 42
-34 42 -39 0 -4 6 -8 14 -8 8 0 16 -3 18 -7 5 -12 167 -133 178 -133 4 0 10
-4 12 -8 2 -4 25 -23 53 -42 27 -19 54 -38 60 -43 38 -28 155 -107 160 -107 3
0 11 -5 18 -10 23 -20 138 -90 147 -90 4 0 10 -4 12 -8 1 -5 34 -26 72 -48 38
-21 99 -56 135 -76 65 -37 461 -239 471 -240 3 0 16 -5 30 -11 14 -6 27 -11
30 -12 6 -2 44 -18 95 -40 84 -36 92 -36 172 -4 169 67 659 311 683 340 3 3
25 17 50 31 63 34 134 78 290 183 74 49 140 92 145 94 6 2 12 7 15 10 10 12
79 61 86 61 4 0 14 8 23 18 9 9 36 31 61 47 25 17 50 35 55 41 6 6 53 44 105
85 52 40 104 82 115 92 11 11 36 31 54 46 19 14 45 35 57 46 12 11 50 45 84
75 74 65 500 486 500 494 0 3 12 18 28 34 27 29 96 107 172 197 24 28 48 53
54 57 6 5 7 8 1 8 -5 0 -3 6 5 13 14 10 165 202 212 268 9 13 49 69 87 124 39
55 75 105 81 112 5 7 10 16 10 21 0 4 8 17 18 28 9 11 22 29 28 40 7 10 39 62
72 114 33 52 69 111 79 130 11 19 48 83 82 142 33 60 61 110 61 112 0 2 16 32
35 66 19 34 35 68 35 75 0 7 4 15 8 17 8 3 36 59 112 224 23 49 48 102 56 118
8 16 14 33 14 37 0 5 11 32 25 61 13 29 25 60 27 68 2 8 6 17 9 20 3 3 16 34
29 70 13 36 28 74 34 85 5 11 11 25 13 30 1 6 35 107 76 225 40 118 74 218 75
223 5 22 35 125 42 147 5 14 12 36 14 50 3 14 15 59 26 100 28 101 75 300 87
365 8 44 11 60 13 60 1 0 3 9 5 20 8 56 17 102 21 118 3 10 7 30 9 45 2 15 13
81 25 147 11 66 23 136 25 155 4 38 13 106 20 160 10 76 15 118 21 175 3 33 8
74 10 90 2 17 6 68 9 115 4 47 8 103 10 125 20 200 27 961 12 1240 -11 195
-16 265 -22 303 -8 51 -57 192 -66 192 -5 0 -9 5 -9 11 0 35 -119 169 -210
237 -57 42 -195 115 -217 115 -7 0 -13 4 -13 9 0 5 -4 6 -10 3 -5 -3 -18 -2
-27 4 -10 5 -34 12 -54 15 -20 3 -42 8 -50 10 -18 7 -63 15 -109 21 -19 3 -46
7 -60 10 -14 3 -41 7 -60 10 -19 3 -46 7 -60 10 -33 8 -117 23 -160 30 -19 3
-42 8 -50 10 -8 2 -31 7 -50 10 -19 3 -57 10 -85 15 -27 5 -61 12 -75 14 -14
3 -25 5 -25 6 0 1 -13 4 -30 6 -16 2 -50 9 -75 14 -25 5 -56 12 -70 14 -14 3
-81 16 -150 30 -69 14 -137 27 -153 30 -15 2 -35 7 -45 10 -9 3 -33 7 -52 10
-19 3 -46 8 -60 11 -34 7 -69 14 -105 20 -16 3 -41 8 -55 10 -46 10 -75 15
-130 25 -56 10 -85 15 -130 24 -14 3 -41 7 -60 10 -19 2 -42 7 -50 10 -8 3
-33 8 -55 10 -22 3 -51 8 -65 11 -14 3 -47 8 -75 11 -57 7 -80 12 -80 15 0 1
-11 3 -25 4 -14 1 -72 10 -130 18 -58 9 -125 19 -150 21 -25 3 -56 7 -70 10
-14 3 -50 7 -80 10 -30 4 -73 8 -95 11 -22 3 -60 7 -85 10 -25 2 -74 7 -110
11 -36 3 -81 7 -100 8 -20 1 -41 5 -47 9 -6 4 -14 3 -18 -3 -4 -6 -11 -7 -17
-4 -6 4 -34 9 -62 11 -66 4 -794 12 -798 8z m884 -1155 c64 -24 131 -86 162
-150 29 -61 29 -176 0 -240 -30 -65 -120 -148 -169 -155 -5 -1 -12 -3 -15 -5
-13 -7 -64 -10 -165 -10 l-111 0 1 -352 0 -352 95 -23 c52 -13 102 -25 110
-27 29 -8 156 -54 203 -75 26 -11 51 -21 55 -22 4 -1 21 -10 37 -20 17 -11 41
-23 54 -29 13 -6 44 -24 68 -40 24 -17 48 -30 53 -30 4 0 10 -6 13 -12 3 -8
118 100 270 251 l266 265 -81 82 c-99 100 -119 131 -134 205 -25 121 31 247
136 305 19 10 37 21 40 24 8 8 32 12 97 15 68 4 127 -13 178 -51 17 -12 193
-185 392 -384 275 -275 367 -373 383 -408 12 -26 25 -54 29 -62 13 -25 4 -137
-15 -185 -11 -27 -21 -41 -76 -96 -95 -97 -251 -107 -363 -24 -16 12 -62 55
-102 94 l-71 72 -259 -258 -258 -258 56 -87 c62 -97 124 -218 163 -318 27 -72
76 -235 76 -255 0 -8 8 -16 18 -18 9 -3 176 -4 370 -4 l353 2 2 130 c3 143 17
191 73 255 30 33 101 79 131 85 10 2 18 4 18 5 0 7 132 5 145 -1 8 -4 29 -12
46 -19 61 -22 129 -100 155 -175 20 -61 21 -1069 1 -1140 -42 -150 -201 -239
-357 -202 -71 17 -154 91 -189 167 -19 43 -23 91 -26 277 l0 33 -184 -1 c-101
-1 -189 1 -194 5 -6 3 -13 2 -16 -2 -5 -8 -29 -9 -61 -2 -5 1 -14 1 -20 0 -5
-1 -61 -1 -122 -1 -83 1 -113 -2 -115 -12 0 -6 -2 -16 -3 -22 -2 -5 -3 -13 -4
-17 0 -5 -1 -10 -2 -13 0 -2 -7 -33 -16 -67 -8 -35 -16 -72 -19 -83 -19 -97
-115 -330 -185 -447 l-22 -37 235 -235 235 -236 85 84 c111 110 160 136 260
137 129 2 242 -86 283 -219 17 -58 -4 -185 -38 -230 -7 -8 -179 -182 -382
-388 -419 -421 -429 -429 -550 -428 -120 1 -209 57 -263 167 -24 48 -28 69
-27 125 3 96 29 144 129 248 47 49 86 91 86 94 0 10 -438 440 -448 440 -5 0
-15 -7 -22 -15 -17 -20 -157 -112 -240 -157 -72 -40 -250 -116 -288 -124 -7
-1 -36 -10 -65 -19 -56 -17 -58 -18 -129 -30 -27 -4 -49 -10 -49 -14 -5 -22
-4 -571 0 -572 3 -1 61 -3 127 -4 106 -2 129 -6 178 -28 62 -29 117 -81 149
-142 31 -58 30 -182 -1 -246 -39 -79 -126 -149 -204 -163 -15 -2 -32 -7 -38
-11 -5 -3 -10 -1 -10 5 0 6 -5 8 -11 4 -14 -8 -254 -8 -268 0 -6 4 -11 3 -11
-3 0 -7 -8 -7 -24 -1 -13 5 -27 6 -30 2 -8 -8 -103 -5 -116 3 -6 3 -10 2 -10
-4 0 -7 -8 -7 -25 -1 -15 6 -27 6 -30 0 -3 -6 -15 -6 -30 0 -15 6 -27 6 -30 0
-3 -6 -15 -6 -30 0 -15 6 -27 6 -30 -1 -4 -6 -13 -6 -23 0 -10 6 -23 6 -34 0
-10 -6 -19 -5 -23 1 -3 5 -15 6 -28 1 -12 -5 -32 -5 -44 0 -13 5 -25 4 -28 -1
-3 -6 -15 -6 -30 0 -15 6 -27 6 -30 -1 -4 -5 -13 -6 -22 0 -9 5 -29 5 -44 1
-15 -5 -29 -6 -32 -4 -2 2 -24 7 -48 10 -24 3 -50 11 -56 16 -7 6 -13 8 -13 5
0 -12 -76 45 -107 81 -34 38 -61 104 -65 157 -4 43 11 133 22 140 6 4 8 10 5
15 -6 10 96 120 113 120 6 0 12 4 12 10 0 5 3 9 8 8 4 -1 25 4 47 12 24 8 86
14 158 14 l117 1 0 291 c0 226 -3 291 -12 291 -49 0 -269 65 -378 111 -90 38
-252 127 -296 161 -15 12 -31 21 -35 21 -5 0 -120 -110 -255 -245 l-246 -246
86 -85 c97 -96 127 -150 134 -236 15 -198 -169 -353 -360 -303 -26 8 -62 22
-79 33 -43 27 -744 727 -780 780 -17 23 -27 42 -23 42 3 0 1 7 -6 15 -12 15
-18 130 -9 170 13 54 57 120 104 155 51 38 111 64 125 55 5 -3 11 -1 14 4 13
21 166 -12 203 -43 7 -6 50 -48 96 -92 l84 -82 248 248 c179 179 246 252 242
264 -4 9 -11 16 -17 16 -5 0 -10 4 -10 10 0 5 -15 34 -34 63 -41 63 -136 261
-136 281 0 8 -4 18 -10 21 -5 3 -10 17 -10 30 0 13 -4 26 -9 29 -5 3 -12 23
-17 43 -4 21 -8 40 -9 43 -14 49 -25 91 -28 117 -7 46 -10 49 -64 48 -26 0
-51 5 -55 10 -5 7 -8 7 -8 0 0 -6 -120 -10 -343 -9 l-342 1 0 -111 c1 -118
-11 -184 -41 -232 -20 -32 -90 -106 -99 -104 -3 0 -20 -7 -38 -16 -18 -10 -61
-18 -100 -20 -119 -5 -221 56 -274 164 l-28 57 -2 525 c-3 527 0 587 33 652
16 32 124 140 124 124 0 -2 21 4 47 13 96 36 203 11 289 -65 24 -21 78 -104
68 -104 -4 0 -1 -7 6 -15 9 -10 13 -58 14 -147 l2 -132 26 -7 c15 -4 29 -4 32
-1 8 7 69 7 89 -1 10 -4 17 -2 17 3 0 5 13 5 30 0 16 -5 32 -5 35 0 3 5 18 5
34 0 16 -4 32 -6 35 -2 8 7 69 7 89 -1 10 -4 17 -2 17 3 0 5 13 5 30 0 16 -5
32 -5 35 0 3 5 18 5 34 0 16 -4 32 -6 35 -2 5 5 43 5 101 1 6 -1 44 0 86 1
l76 2 18 82 c42 197 132 413 236 568 22 32 39 62 39 68 0 5 -120 130 -266 276
l-267 267 -69 -72 c-38 -39 -71 -71 -73 -71 -2 0 -15 -10 -28 -23 -57 -52
-208 -74 -274 -40 -14 7 -30 13 -37 13 -24 0 -121 115 -135 160 -29 94 -15
198 35 266 13 18 187 195 387 395 410 411 415 414 537 413 178 -1 302 -133
288 -308 -7 -88 -33 -134 -134 -237 l-83 -86 262 -261 c144 -144 265 -264 268
-267 8 -7 59 16 59 27 0 4 5 8 11 8 6 0 29 13 52 28 47 31 246 130 274 136 10
1 25 6 33 9 42 18 130 45 130 40 0 -3 6 0 13 6 8 6 17 8 20 5 3 -3 12 -2 19 2
7 5 15 9 18 10 3 0 26 4 53 8 l47 8 0 353 0 354 -117 -1 c-128 0 -184 13 -250
57 -20 14 -33 25 -30 25 3 0 -8 14 -23 30 -35 37 -67 131 -64 187 6 125 90
236 204 271 8 2 56 6 105 8 50 3 96 6 104 7 8 1 213 1 457 0 416 -2 445 -4
496 -23z"/>
<path d="M4225 6115 c-38 -7 -90 -19 -115 -26 -25 -7 -49 -13 -55 -15 -15 -3
-84 -33 -145 -62 -146 -69 -336 -227 -417 -346 -15 -22 -34 -47 -40 -54 -7 -7
-13 -20 -13 -28 0 -8 -4 -14 -9 -14 -9 0 -87 -153 -109 -215 -13 -35 -41 -129
-49 -165 -27 -115 28 -218 134 -252 90 -29 176 -4 253 73 42 43 94 132 83 143
-4 3 -2 6 4 6 5 0 10 6 10 13 0 39 99 199 166 267 52 53 167 138 167 123 0 -4
4 -3 8 3 17 27 167 69 277 79 102 10 129 15 180 39 28 14 68 43 88 65 53 59
69 104 65 183 -3 55 -9 75 -33 109 -50 71 -88 84 -245 85 -74 1 -166 -4 -205
-11z"/>
</g>
</svg>
